Patient4_TMGait_0pt4_02_left_09_EMG.mot
version=1
nRows=33
nColumns=33
inDegrees=no
endheader
time	1LAddLong	2LGlutMax	3LGlutMed	4LIliopsoas	5LSemiMemb	6LBicFemLong	7LRecFem	8LVastMed	9LVastLat	10LGasMed	11LTibAnt	12lTibPost	13LPeroneusLong	14LSol	15LExtDigLong	16LFlexDigLong	17RAddLong	18RGlutMax	19RGlutMed	20RIliopsoas	21RSemiMemb	22RBicFemLong	23RRecFem	24RVastMed	25RVastLat	26RGasMed	27RTibAnt	28RTibPost	29RPeroneusLong	30RSol	31RExtDigLong	32RFlexDigLong
12.07	0.000153	-0.16144	-0.056305	-0.012512	-0.017548	-0.007019	-0.23041	0.000305	-0.25711	0.001831	-0.13214	0.007782	0.016937	-0.10086	-0.079346	-0.030212	-0.007935	0.18295	0.063324	0.048676	-0.048218	0.049591	-0.068512	-0.13641	-0.042725	-0.001068	0.21378	0.005341	-0.03006	-0.027466	0.001526	-0.005646
12.071	0.005188	-0.14389	-0.05127	0.014343	-0.017853	0.000763	-0.22476	0.006256	-0.2388	-0.008698	-0.082245	0.002899	0.018158	-0.056763	-0.007629	-0.019989	0.00412	0.29098	0.70282	-0.007935	-0.039063	0.047455	-0.27618	-0.014496	-0.01236	-0.006409	-0.22171	-0.003815	-0.43762	0.024414	0.001526	-0.010529
12.072	0.001678	-0.12451	-0.056	0.010223	-0.016632	0.028687	-0.24887	0.005035	-0.21576	-0.019836	-0.013123	0.007629	0.051575	-0.059967	0.027618	-0.02182	0.017242	0.30273	0.14847	0.033875	-0.045471	0.030823	-0.2681	0.013733	0.014343	0.004272	-0.89951	-0.003357	-0.19547	0.010223	0.004272	-0.004272
12.073	0.008087	-0.1265	-0.040283	-0.007935	-0.007935	0.044708	-0.25452	0.004272	-0.19699	-0.026093	0.097046	0.00885	0.07843	-0.031281	-0.050812	-0.014343	0.019226	0.35751	-0.10407	-0.013123	-0.02655	-0.005493	-0.23514	0.034637	0.071106	0.001068	-0.76202	-0.010681	0.62042	0.085602	0.004425	-0.005798
12.074	0.014343	-0.12985	-0.040283	-0.003662	-0.018921	0.016937	-0.25467	0.00351	-0.15243	-0.010071	0.15228	0.008392	0.082245	-0.069885	-0.14313	-0.018005	0.007172	0.45929	-0.19821	-0.079956	0.011749	0.018768	-0.23071	0.038147	0.18997	-0.008392	-0.19699	-0.010223	-0.00824	0.052338	0.003204	-0.001678
12.075	0.006409	-0.12924	-0.056305	0	-0.005798	0.018768	-0.24612	0.002747	-0.11261	0.015564	0.10956	0.008392	0.035858	-0.063324	-0.088501	-0.018616	0.010223	0.38422	-0.58304	-0.1207	0.027313	0.029449	0.037689	0.13138	0.12192	-0.001526	0.058899	-0.00412	0.42023	-0.16586	0.00351	-0.005035
12.076	0.006409	-0.15381	-0.085754	0.013123	-0.007019	0.032043	-0.25177	0.015869	-0.083008	-0.007782	-0.063934	0.003967	0.050201	-0.057678	-0.034485	-0.015564	0.011749	0.47638	-0.18173	-0.095367	0.010376	0.049286	0.14648	0.079193	0.13153	0.005341	-0.1178	-0.003052	0.20676	-0.14847	0.003052	-0.00351
12.077	0.002899	-0.12512	-0.074615	0.046082	-0.031738	0.031128	-0.25559	0.006256	-0.054321	-0.007019	-0.1384	0.007172	0.069733	-0.04425	0.058136	-0.016632	0.022125	0.49149	0.036621	-0.050507	-0.066071	0.034027	0.1474	0.043945	0.33508	0.008545	-0.087738	-0.004578	-1.1498	-0.15121	-0.003052	-0.001984
12.078	0.007019	-0.13107	-0.031281	0.031281	-0.028076	0.007172	-0.26321	0.009003	-0.043945	-0.029907	-0.17654	0.00351	0.095673	-0.014801	0.17212	-0.008545	0.004272	0.3688	0.023956	0.016174	-0.11459	0.062408	0.16144	-0.029602	0.2945	0.000305	-0.049133	-0.005341	-1.0786	-0.026245	-0.000153	-0.002747
12.079	0.000916	-0.14297	-0.00473	-0.001526	0.000763	0.003204	-0.26016	0.008545	-0.02594	-0.036316	-0.093994	0.003052	0.13412	0.018616	0.16495	-0.018005	-0.016022	0.47119	-0.35904	0.15152	0.031128	0.037689	0.17105	-0.17273	0.2803	-0.003357	-0.25528	-0.004425	0.48218	0.096283	0.001221	-0.005798
12.08	-0.00473	-0.12207	-0.035248	0.003662	0.009918	0.008087	-0.25559	0.00946	-0.025024	-0.039825	0.16357	0.006409	0.092621	0.001068	0.034332	-0.011292	-0.016632	0.59341	0.084076	0.14191	0.047913	0.000305	0.088348	-0.21606	0.26382	0.001221	-0.073547	-0.003967	0.20447	0.10513	0.011292	-0.002594
12.081	0.003357	-0.11963	-0.011292	0.011292	0.014038	0.02594	-0.25803	0.010529	-0.023346	-0.036926	0.092316	0.009766	0.053406	-0.0354	0.1149	-0.024872	-0.014191	0.55756	0.31403	0.052948	0.014343	0.020447	0.09613	-0.16693	0.16174	0.00473	0.10376	-0.005493	-0.09079	0.021057	0.000153	-0.014191
12.082	0.004425	-0.12619	0.10422	0	-0.015411	0.026703	-0.25986	0.003204	-0.017548	-0.031586	-0.10635	0.002289	0.052948	-0.019684	-0.12817	-0.016022	-0.016022	0.55222	0.327	0.025482	0.014343	0.00824	0.059509	-0.089569	0.039368	0.002899	0.11444	-0.007324	0.17532	-0.12024	0.000305	-0.003052
12.083	0.011749	-0.11398	0.085144	0.008392	-0.031738	0.018768	-0.2713	0.003815	-0.003357	-0.028229	-0.11475	0.00473	0.090485	-0.085907	0.39917	-0.010376	-0.020599	0.56992	0.52902	-0.035858	0.021973	0.045166	-0.011902	-0.018463	-0.28397	0.001984	0.60669	-0.001068	0.31082	-0.098877	0.000763	-0.000916
12.084	0.012207	-0.093384	0.055389	0.014801	-0.073853	-0.006256	-0.23789	0.006866	0.028229	-0.039673	-0.10742	0.002899	0.084076	-0.11169	-0.12863	-0.009155	-0.001984	0.6247	0.65506	-0.00473	0.002289	0.010834	0.025482	0.079956	-0.52048	-0.002289	0.72998	-0.002594	0.019989	-0.072021	0.001068	-0.007629
12.085	0.009155	-0.098877	-0.001984	0.020905	0.011902	-0.014343	-0.24216	0.003967	0.052338	-0.044556	0.054932	0.004883	0.041656	-0.006256	0.091858	-0.011902	0.010376	0.69153	0.96283	0.001831	-0.00061	-0.033722	-0.079498	0.16113	-0.57068	-0.020294	0.298	-0.004578	-0.039825	0.057983	-0.000763	-0.007172
12.086	0.012665	-0.085144	-0.024719	0.000458	0.019531	-0.008087	-0.23315	0.000763	0.078125	-0.059204	0.012817	0.003357	0.046844	0.010986	0.088959	-0.001984	0.012512	0.72342	1.0939	0.005188	-0.016327	-0.021515	0.0177	0.16602	-0.41397	-0.018005	0.58624	0.000916	-0.67413	0.13748	0.001373	-0.008698
12.087	0.012665	-0.11002	0.003204	0.014954	0.006409	-0.023956	-0.2388	0.004883	0.091095	-0.029297	-0.034027	0.006409	0.041046	-0.065308	-0.10742	-0.008545	0.010071	0.69351	1.0466	0.001678	0.001526	0.000305	-0.070648	0.099945	-0.12634	-0.001678	0.5867	-0.001373	-0.063477	0.041199	0.000153	-0.007477
12.088	0.007172	-0.076904	0.024414	0.006714	0.014343	-0.00061	-0.22492	0.003357	0.11093	-0.008087	-0.026398	-0.00351	0.024567	-0.057983	-0.19287	0.005951	0.001221	0.62164	0.8049	-0.016937	-0.00885	-0.024719	-0.087433	0.090027	0.08255	0.009155	0.52765	-0.003204	0.81818	-0.082703	0.002747	-0.003815
12.089	0.00885	-0.084839	-0.023499	-0.005798	-0.009308	-0.010376	-0.23071	0.004578	0.12116	-0.021515	-0.022888	-0.0177	0.032959	-0.03891	-0.09491	0.012054	0.015564	0.52506	-0.46692	0.017242	-0.035706	-0.022888	0.047455	0.031281	0.11704	0.01236	-0.95291	-0.00412	1.2177	-0.036621	-0.000305	-0.006256
12.09	0.006104	-0.066986	-0.049591	-0.000916	-0.010681	-0.001678	-0.24445	0.005951	0.13931	-0.023041	0.037537	0.007324	0.023041	0.010986	-0.078735	0.007477	0.003052	0.42191	-1.0364	0.090027	-0.020294	-0.013123	0.045624	-0.053558	0.022278	0.007477	-1.2689	-0.001678	-0.17792	0.11536	0.001831	-0.007477
12.091	0.010223	-0.062714	-0.075226	-0.004883	-0.000916	0.002136	-0.24338	0.005951	0.14404	-0.025177	0.028839	-0.011292	0.01297	0.00351	-0.097351	-0.007935	-0.007629	0.43015	-0.98877	0.074158	-0.020599	-0.015869	0.000305	-0.037384	0.008392	-0.006714	-0.95795	-0.006104	0.13977	0.30273	-0.003204	0.002899
12.092	0.005798	-0.082245	-0.067596	0.006104	-0.014648	0.003967	-0.23972	0.002441	0.15289	-0.021057	0.018616	-0.012665	0.049438	-0.089417	-0.16739	0.009155	0.001984	0.35095	-0.98023	0.093231	-0.024109	-0.038452	0.10864	-0.01297	0.002594	-0.004272	-0.42038	-0.004272	-0.11917	0.15152	0.000305	-0.002899
12.093	0.009155	-0.086365	-0.021057	0.006714	-0.007477	-0.014801	-0.22873	0.005341	0.15839	-0.005341	-0.01709	0.000305	0.062714	-0.19623	-0.16357	0.007629	0.007172	0.26947	-0.68451	0.17105	-0.02182	-0.001373	0.14893	-0.016479	0.003204	-0.012512	0.010529	-0.004883	-0.48401	0.064392	0.009613	-0.00946
12.094	0.005188	-0.094757	0.01358	0.00351	0.00061	-0.024261	-0.21469	0.00351	0.15961	-0.013275	-0.01709	-0.013885	0.067444	-0.24414	-0.051422	0.014801	0.001678	0.27542	0.43823	0.11185	0.001831	0.029755	0.078278	-0.056305	-0.045166	-0.007782	0.051727	-0.005798	-0.504	0.06546	0.001678	-0.011902
12.095	0.009003	-0.080261	-0.030212	0.005188	0.000916	-0.011902	-0.2359	0.000916	0.18753	0.002899	-0.024109	0.001068	0.041046	-0.19165	-0.020294	0.014801	0.012665	0.24979	0.811	-0.090332	0.00351	0.10757	0.12314	0.025177	0.02594	-0.001678	-0.096588	-0.006409	0.74158	-0.14648	0.002899	0.000305
12.096	0.005035	-0.073547	-0.046997	0.012207	0.010529	-0.005493	-0.21469	0.002136	0.19547	-0.004425	-0.016632	-0.006409	0.035248	-0.095062	0.019531	0.017242	0.014801	0.24689	0.46127	-0.16449	0.010986	0.12817	0.18982	0.068359	0.037231	0.008087	-0.04364	-0.001984	2.4548	-0.2742	0.004272	0.004272
12.097	0.005035	-0.063324	-0.058136	0.013885	-0.00061	-0.019684	-0.21042	0.005188	0.19363	-0.007935	0.012665	-0.002136	0.039978	-0.045929	0.041199	0.006866	0.01358	0.17899	-0.29495	-0.15335	0.005646	0.084534	0.34164	0.033112	-0.021515	-0.00824	-0.27268	-0.006104	0.5629	-0.12772	0.003662	0.001831
12.098	0.002747	-0.049744	-0.079041	0.010834	-0.010986	-0.018311	-0.21316	0.00412	0.18539	-0.011292	0.025177	-0.00412	0.040894	-0.033264	0.25589	0.010986	0.019684	0.13962	-0.5806	-0.041046	0.000763	0.079193	0.41763	-0.042572	-0.072632	-0.01236	-0.40222	-0.007477	-1.7346	-0.10895	-0.001831	-0.002899
12.099	-0.001373	-0.044708	-0.086212	0.007019	-0.025024	-0.022125	-0.20371	0.005951	0.1828	-0.013733	0.039368	0.000305	0.027466	0.015106	0.37064	0.006409	0.018921	0.073242	-0.49988	0.05661	0.007019	0.10376	0.29221	-0.097809	-0.076752	0.02594	-0.72678	-0.009155	0.34195	-0.25971	0.004272	-0.001221
12.1	0.000153	-0.023499	-0.088806	-0.001831	-0.009155	-0.040741	-0.19394	0.001678	0.17777	-0.030823	0.075226	0.000763	-0.010529	-0.010376	0.037537	-0.002594	0.003662	0.081635	0.42114	0.045471	0.020752	0.12054	0.20538	-0.22232	-0.13092	0.008545	-0.19073	-0.004425	0.074768	-0.15915	0.002289	-0.00351
12.101	0.00473	-0.031891	-0.086517	-0.00473	-0.011597	-0.021057	-0.1973	0.002289	0.18097	-0.0354	0.15015	0.000153	-0.00473	0.054474	0.046844	0.007629	0.004578	0.14725	0.23499	0.052338	0.011292	0.027313	0.23682	-0.35904	-0.12131	0.001526	-0.10346	-0.004578	-1.4207	0.031128	0.000763	-0.000458
12.102	0.000153	-0.024414	-0.041962	0.000153	-0.015259	-0.003967	-0.18723	0.003204	0.17441	-0.055542	0.17258	0.00351	0.000763	0.14236	0.3952	0.002441	0.007935	0.12375	-0.50659	0.058289	0.00473	0.034637	-0.083008	-0.41473	-0.11383	0.007935	-0.076599	-0.006866	-1.4174	0.12711	-0.002899	-0.002136
